<svg width="23" height="23" viewBox="0 0 23 23" fill="none" xmlns="http://www.w3.org/2000/svg">
<g clip-path="url(#clip0_196_6)">
<path d="M8.3021 4.95981H14.2005C15.0501 4.95981 15.5482 4.10043 14.9134 3.44614L11.9544 0.321137C11.5443 -0.118316 10.9486 -0.0987842 10.5384 0.330903L7.58921 3.44614C6.96421 4.10043 7.46225 4.95981 8.3021 4.95981ZM17.5404 8.32895V14.2274C17.5404 15.077 18.3998 15.575 19.0638 14.9403L22.179 11.9911C22.599 11.5809 22.6185 10.995 22.1888 10.575L19.0638 7.61606C18.3998 6.99106 17.5404 7.48911 17.5404 8.32895ZM14.2005 17.5965H8.3021C7.46225 17.5965 6.96421 18.4559 7.58921 19.1102L10.5482 22.2352C10.9681 22.6747 11.5638 22.6551 11.9642 22.2254L14.9134 19.1102C15.5482 18.4559 15.0501 17.5965 14.2005 17.5965ZM4.96225 14.2274V8.32895C4.96225 7.48911 4.09311 6.99106 3.43882 7.61606L0.323581 10.5653C-0.0963409 10.9754 -0.115872 11.5614 0.313815 11.9813L3.43882 14.9403C4.09311 15.575 4.96225 15.077 4.96225 14.2274ZM11.2611 19.9012C11.7396 19.9012 12.1302 19.5008 12.1302 19.0223V3.53403C12.1302 3.05551 11.7396 2.66489 11.2611 2.66489C10.7826 2.66489 10.3822 3.05551 10.3822 3.53403V19.0223C10.3822 19.5008 10.7826 19.9012 11.2611 19.9012ZM2.6478 11.2782C2.6478 11.7567 3.03842 12.1473 3.51694 12.1473H19.0052C19.4837 12.1473 19.8841 11.7567 19.8841 11.2782C19.8841 10.7997 19.4837 10.3993 19.0052 10.3993H3.51694C3.03842 10.3993 2.6478 10.7997 2.6478 11.2782Z" fill="#FFFFFF"/>
</g>
<defs>
<clipPath id="clip0_196_6">
<rect width="22.864" height="22.5856" fill="white"/>
</clipPath>
</defs>
</svg>
